<?xml version="1.0" encoding="UTF-8"?><svg xmlns="http://www.w3.org/2000/svg" xmlns:xlink="http://www.w3.org/1999/xlink" fill-opacity="1" color-rendering="auto" color-interpolation="auto" text-rendering="auto" stroke="black" stroke-linecap="square" width="460" stroke-miterlimit="10" shape-rendering="auto" stroke-opacity="1" fill="black" stroke-dasharray="none" font-weight="normal" stroke-width="1" height="211" font-family="'Dialog'" font-style="normal" stroke-linejoin="miter" font-size="12px" stroke-dashoffset="0" image-rendering="auto">
  <!--Generated by ySVG 2.6-->
  <defs id="genericDefs"/>
  <g>
    <defs id="defs1">
      <clipPath clipPathUnits="userSpaceOnUse" id="clipPath1">
        <path d="M0 0 L460 0 L460 211 L0 211 L0 0 Z"/>
      </clipPath>
      <clipPath clipPathUnits="userSpaceOnUse" id="clipPath2">
        <path d="M260 242 L720 242 L720 453 L260 453 L260 242 Z"/>
      </clipPath>
    </defs>
    <g fill="white" text-rendering="geometricPrecision" shape-rendering="geometricPrecision" transform="translate(-260,-242)" stroke="white">
      <rect x="260" width="460" height="211" y="242" clip-path="url(#clipPath2)" stroke="none"/>
    </g>
    <g id="y.node.0">
      <a target="_blank" xlink:type="simple" xlink:href="urn:persoon" xlink:show="new">
        <g fill="rgb(245,245,245)" text-rendering="geometricPrecision" shape-rendering="geometricPrecision" transform="matrix(1,0,0,1,-260,-242)" stroke="rgb(245,245,245)">
          <circle r="30" cx="660" cy="315" stroke="none"/>
        </g>
        <g>
          <g font-size="15px" stroke-linecap="butt" transform="matrix(1,0,0,1,-260,-242)" text-rendering="geometricPrecision" font-family="sans-serif" shape-rendering="geometricPrecision" stroke-miterlimit="1.45">
            <text x="634.9475" xml:space="preserve" y="279.8359" stroke="none">person</text>
          </g>
        </g>
        <g text-rendering="geometricPrecision" stroke-miterlimit="1.45" shape-rendering="geometricPrecision" transform="matrix(1,0,0,1,-260,-242)" stroke-linecap="butt">
          <circle fill="none" r="30" cx="660" cy="315"/>
        </g>
      </a>
    </g>
    <g id="y.node.1">
      <g fill="rgb(255,204,0)" text-rendering="geometricPrecision" shape-rendering="geometricPrecision" transform="matrix(1,0,0,1,-260,-242)" stroke="rgb(255,204,0)">
        <rect x="645" width="30" height="30" y="300" stroke="none"/>
      </g>
      <g text-rendering="geometricPrecision" stroke-miterlimit="1.45" shape-rendering="geometricPrecision" transform="matrix(1,0,0,1,-260,-242)" stroke-linecap="butt">
        <rect fill="none" x="645" width="30" height="30" y="300"/>
      </g>
      <g/>
    </g>
    <g id="y.node.2">
      <a target="_blank" xlink:type="simple" xlink:href="urn:organisation" xlink:show="new">
        <g fill="rgb(245,245,245)" text-rendering="geometricPrecision" shape-rendering="geometricPrecision" transform="matrix(1,0,0,1,-260,-242)" stroke="rgb(245,245,245)">
          <circle r="30" cx="336" cy="315" stroke="none"/>
        </g>
        <g>
          <g font-size="15px" stroke-linecap="butt" transform="matrix(1,0,0,1,-260,-242)" text-rendering="geometricPrecision" font-family="sans-serif" shape-rendering="geometricPrecision" stroke-miterlimit="1.45">
            <text x="290.4836" xml:space="preserve" y="279.8359" stroke="none">organisation</text>
          </g>
        </g>
        <g text-rendering="geometricPrecision" stroke-miterlimit="1.45" shape-rendering="geometricPrecision" transform="matrix(1,0,0,1,-260,-242)" stroke-linecap="butt">
          <circle fill="none" r="30" cx="336" cy="315"/>
        </g>
      </a>
    </g>
    <g id="y.node.3">
      <g fill="rgb(255,204,0)" text-rendering="geometricPrecision" shape-rendering="geometricPrecision" transform="matrix(1,0,0,1,-260,-242)" stroke="rgb(255,204,0)">
        <rect x="321" width="30" height="30" y="300" stroke="none"/>
      </g>
      <g text-rendering="geometricPrecision" stroke-miterlimit="1.45" shape-rendering="geometricPrecision" transform="matrix(1,0,0,1,-260,-242)" stroke-linecap="butt">
        <rect fill="none" x="321" width="30" height="30" y="300"/>
      </g>
      <g/>
    </g>
    <g id="y.node.4">
      <a target="_blank" xlink:type="simple" xlink:href="urn:employment" xlink:show="new">
        <g>
          <g font-size="15px" stroke-linecap="butt" transform="matrix(1,0,0,1,-260,-242)" text-rendering="geometricPrecision" font-family="sans-serif" shape-rendering="geometricPrecision" stroke-miterlimit="1.45">
            <text x="464.9512" xml:space="preserve" y="273.8359" stroke="none">employment</text>
          </g>
        </g>
      </a>
    </g>
    <g id="y.node.5">
      <g fill="rgb(255,204,0)" text-rendering="geometricPrecision" shape-rendering="geometricPrecision" transform="matrix(1,0,0,1,-260,-242)" stroke="rgb(255,204,0)">
        <rect x="442.9268" width="68.1465" height="30" y="300" stroke="none"/>
      </g>
      <g text-rendering="geometricPrecision" stroke-miterlimit="1.45" shape-rendering="geometricPrecision" transform="matrix(1,0,0,1,-260,-242)" stroke-linecap="butt">
        <rect fill="none" x="442.9268" width="68.1465" height="30" y="300"/>
      </g>
      <g>
        <g text-rendering="geometricPrecision" stroke-miterlimit="1.45" shape-rendering="geometricPrecision" font-family="sans-serif" transform="matrix(1,0,0,1,-260,-242)" stroke-linecap="butt">
          <text x="449.9268" xml:space="preserve" y="319.5352" stroke="none">employer</text>
        </g>
      </g>
      <g>
        <g text-rendering="geometricPrecision" stroke-miterlimit="1.45" shape-rendering="geometricPrecision" font-family="sans-serif" transform="matrix(1,0,0,1,-260,-242)" stroke-linecap="butt">
          <text x="425.1631" xml:space="preserve" y="347.6016" stroke="none">has employee</text>
        </g>
      </g>
    </g>
    <g id="y.node.6">
      <g text-rendering="geometricPrecision" shape-rendering="geometricPrecision" transform="matrix(1,0,0,1,-260,-242)">
        <rect x="442.9268" width="68.1465" height="2" y="294" stroke="none"/>
        <rect x="442.9268" stroke-linecap="butt" y="294" fill="none" width="68.1465" height="2" stroke-miterlimit="1.45"/>
      </g>
    </g>
    <g id="y.node.7">
      <g fill="rgb(255,204,0)" text-rendering="geometricPrecision" shape-rendering="geometricPrecision" transform="matrix(1,0,0,1,-260,-242)" stroke="rgb(255,204,0)">
        <rect x="511.0732" width="69.9219" height="30" y="300" stroke="none"/>
      </g>
      <g text-rendering="geometricPrecision" stroke-miterlimit="1.45" shape-rendering="geometricPrecision" transform="matrix(1,0,0,1,-260,-242)" stroke-linecap="butt">
        <rect fill="none" x="511.0732" width="69.9219" height="30" y="300"/>
      </g>
      <g>
        <g text-rendering="geometricPrecision" stroke-miterlimit="1.45" shape-rendering="geometricPrecision" font-family="sans-serif" transform="matrix(1,0,0,1,-260,-242)" stroke-linecap="butt">
          <text x="518.0732" xml:space="preserve" y="319.5352" stroke="none">employee</text>
        </g>
      </g>
      <g>
        <g text-rendering="geometricPrecision" stroke-miterlimit="1.45" shape-rendering="geometricPrecision" font-family="sans-serif" transform="matrix(1,0,0,1,-260,-242)" stroke-linecap="butt">
          <text x="517.0732" xml:space="preserve" y="347.6016" stroke="none">works for</text>
          <text x="517.0732" xml:space="preserve" y="361.7344" stroke="none">has employer</text>
        </g>
      </g>
    </g>
    <g id="y.node.8">
      <g text-rendering="geometricPrecision" shape-rendering="geometricPrecision" transform="matrix(1,0,0,1,-260,-242)">
        <rect x="511.0732" width="69.9219" height="2" y="294" stroke="none"/>
        <rect x="511.0732" stroke-linecap="butt" y="294" fill="none" width="69.9219" height="2" stroke-miterlimit="1.45"/>
      </g>
    </g>
    <g id="y.node.9">
      <g fill="rgb(245,245,245)" text-rendering="geometricPrecision" shape-rendering="geometricPrecision" transform="matrix(1,0,0,1,-260,-242)" stroke="rgb(245,245,245)">
        <circle r="15" cx="660" cy="400" stroke="none"/>
      </g>
      <g text-rendering="geometricPrecision" stroke-miterlimit="1.45" stroke-dasharray="6,2" shape-rendering="geometricPrecision" transform="matrix(1,0,0,1,-260,-242)" stroke-linecap="butt">
        <circle fill="none" r="15" cx="660" cy="400"/>
      </g>
      <g>
        <g text-rendering="geometricPrecision" stroke-miterlimit="1.45" shape-rendering="geometricPrecision" font-family="sans-serif" transform="matrix(1,0,0,1,-260,-242)" stroke-linecap="butt">
          <text x="617.6455" xml:space="preserve" y="432.6016" stroke="none">person's name</text>
        </g>
      </g>
    </g>
    <g id="y.node.10">
      <g fill="rgb(245,245,245)" text-rendering="geometricPrecision" shape-rendering="geometricPrecision" transform="matrix(1,0,0,1,-260,-242)" stroke="rgb(245,245,245)">
        <circle r="15" cx="336" cy="400" stroke="none"/>
      </g>
      <g text-rendering="geometricPrecision" stroke-miterlimit="1.45" stroke-dasharray="6,2" shape-rendering="geometricPrecision" transform="matrix(1,0,0,1,-260,-242)" stroke-linecap="butt">
        <circle fill="none" r="15" cx="336" cy="400"/>
      </g>
      <g>
        <g text-rendering="geometricPrecision" stroke-miterlimit="1.45" shape-rendering="geometricPrecision" font-family="sans-serif" transform="matrix(1,0,0,1,-260,-242)" stroke-linecap="butt">
          <text x="277.2744" xml:space="preserve" y="432.6016" stroke="none">organisation's name</text>
        </g>
      </g>
    </g>
    <g id="y.edge.0">
      <g text-rendering="geometricPrecision" stroke-miterlimit="1.45" shape-rendering="geometricPrecision" transform="matrix(1,0,0,1,-260,-242)" stroke-linecap="butt">
        <path fill="none" d="M442.9268 315 L370 315"/>
        <path d="M362 315 C362 312.7909 363.7909 311 366 311 C368.2091 311 370 312.7909 370 315 C370 317.2091 368.2091 319 366 319 C363.7909 319 362 317.2091 362 315 Z" stroke="none"/>
      </g>
    </g>
    <g id="y.edge.1">
      <g text-rendering="geometricPrecision" stroke-miterlimit="1.45" shape-rendering="geometricPrecision" transform="matrix(1,0,0,1,-260,-242)" stroke-linecap="butt">
        <path fill="none" d="M580.9951 315 L630 315"/>
      </g>
    </g>
    <g id="y.edge.3">
      <g text-rendering="geometricPrecision" stroke-miterlimit="1.45" shape-rendering="geometricPrecision" transform="matrix(1,0,0,1,-260,-242)" stroke-linecap="butt">
        <path fill="none" d="M660 330 L660 385"/>
      </g>
    </g>
    <g id="y.edge.2">
      <g text-rendering="geometricPrecision" stroke-miterlimit="1.45" shape-rendering="geometricPrecision" transform="matrix(1,0,0,1,-260,-242)" stroke-linecap="butt">
        <path fill="none" d="M336 330 L336 385"/>
      </g>
    </g>
  </g>
</svg>
