<?xml version="1.0" encoding="UTF-8"?><svg xmlns="http://www.w3.org/2000/svg" xmlns:xlink="http://www.w3.org/1999/xlink" fill-opacity="1" color-rendering="auto" color-interpolation="auto" text-rendering="auto" stroke="black" stroke-linecap="square" width="528" stroke-miterlimit="10" shape-rendering="auto" stroke-opacity="1" fill="black" stroke-dasharray="none" font-weight="normal" stroke-width="1" height="197" font-family="'Dialog'" font-style="normal" stroke-linejoin="miter" font-size="12px" stroke-dashoffset="0" image-rendering="auto">
  <!--Generated by ySVG 2.6-->
  <defs id="genericDefs"/>
  <g>
    <defs id="defs1">
      <clipPath clipPathUnits="userSpaceOnUse" id="clipPath1">
        <path d="M0 0 L528 0 L528 197 L0 197 L0 0 Z"/>
      </clipPath>
      <clipPath clipPathUnits="userSpaceOnUse" id="clipPath2">
        <path d="M234 268 L762 268 L762 465 L234 465 L234 268 Z"/>
      </clipPath>
    </defs>
    <g fill="white" text-rendering="geometricPrecision" shape-rendering="geometricPrecision" transform="translate(-234,-268)" stroke="white">
      <rect x="234" width="528" height="197" y="268" clip-path="url(#clipPath2)" stroke="none"/>
    </g>
    <g id="y.node.0">
      <a target="_blank" xlink:type="simple" xlink:href="urn:persoon" xlink:show="new">
        <g fill="rgb(245,245,245)" text-rendering="geometricPrecision" shape-rendering="geometricPrecision" transform="matrix(1,0,0,1,-234,-268)" stroke="rgb(245,245,245)">
          <circle r="30" cx="701.9219" cy="335" stroke="none"/>
        </g>
        <g>
          <g font-size="15px" stroke-linecap="butt" transform="matrix(1,0,0,1,-234,-268)" text-rendering="geometricPrecision" font-family="sans-serif" shape-rendering="geometricPrecision" stroke-miterlimit="1.45">
            <text x="676.8694" xml:space="preserve" y="299.8359" stroke="none">person</text>
          </g>
        </g>
        <g/>
        <g text-rendering="geometricPrecision" stroke-miterlimit="1.45" shape-rendering="geometricPrecision" transform="matrix(1,0,0,1,-234,-268)" stroke-linecap="butt">
          <circle fill="none" r="30" cx="701.9219" cy="335"/>
        </g>
      </a>
    </g>
    <g id="y.node.1">
      <g fill="rgb(255,204,0)" text-rendering="geometricPrecision" shape-rendering="geometricPrecision" transform="matrix(1,0,0,1,-234,-268)" stroke="rgb(255,204,0)">
        <rect x="686.9219" width="30" height="30" y="320" stroke="none"/>
      </g>
      <g text-rendering="geometricPrecision" stroke-miterlimit="1.45" shape-rendering="geometricPrecision" transform="matrix(1,0,0,1,-234,-268)" stroke-linecap="butt">
        <rect fill="none" x="686.9219" width="30" height="30" y="320"/>
      </g>
      <g/>
    </g>
    <g id="y.node.2">
      <a target="_blank" xlink:type="simple" xlink:href="urn:organisation" xlink:show="new">
        <g fill="rgb(245,245,245)" text-rendering="geometricPrecision" shape-rendering="geometricPrecision" transform="matrix(1,0,0,1,-234,-268)" stroke="rgb(245,245,245)">
          <circle r="30" cx="310" cy="335" stroke="none"/>
        </g>
        <g>
          <g font-size="15px" stroke-linecap="butt" transform="matrix(1,0,0,1,-234,-268)" text-rendering="geometricPrecision" font-family="sans-serif" shape-rendering="geometricPrecision" stroke-miterlimit="1.45">
            <text x="264.4836" xml:space="preserve" y="299.8359" stroke="none">organisation</text>
          </g>
        </g>
        <g/>
        <g text-rendering="geometricPrecision" stroke-miterlimit="1.45" shape-rendering="geometricPrecision" transform="matrix(1,0,0,1,-234,-268)" stroke-linecap="butt">
          <circle fill="none" r="30" cx="310" cy="335"/>
        </g>
      </a>
    </g>
    <g id="y.node.3">
      <g fill="rgb(255,204,0)" text-rendering="geometricPrecision" shape-rendering="geometricPrecision" transform="matrix(1,0,0,1,-234,-268)" stroke="rgb(255,204,0)">
        <rect x="295" width="30" height="30" y="320" stroke="none"/>
      </g>
      <g text-rendering="geometricPrecision" stroke-miterlimit="1.45" shape-rendering="geometricPrecision" transform="matrix(1,0,0,1,-234,-268)" stroke-linecap="butt">
        <rect fill="none" x="295" width="30" height="30" y="320"/>
      </g>
      <g/>
    </g>
    <g id="y.node.4">
      <a target="_blank" xlink:type="simple" xlink:href="urn:employment" xlink:show="new">
        <g>
          <g font-size="15px" stroke-linecap="butt" transform="matrix(1,0,0,1,-234,-268)" text-rendering="geometricPrecision" font-family="sans-serif" shape-rendering="geometricPrecision" stroke-miterlimit="1.45">
            <text x="460.7266" xml:space="preserve" y="303.8359" stroke="none">employment</text>
          </g>
        </g>
        <g>
          <g text-rendering="geometricPrecision" stroke-miterlimit="1.45" shape-rendering="geometricPrecision" font-family="sans-serif" transform="matrix(1,0,0,1,-234,-268)" stroke-linecap="butt">
            <text x="397.0527" xml:space="preserve" y="372.6016" stroke="none">[Person] has employee [Organization]</text>
            <text x="409.4336" xml:space="preserve" y="386.7344" stroke="none">[Person] works for [Organization]</text>
            <text x="397.9404" xml:space="preserve" y="400.8672" stroke="none">[Person] has employer [Organization]</text>
          </g>
        </g>
      </a>
    </g>
    <g id="y.node.5">
      <g fill="rgb(255,204,0)" text-rendering="geometricPrecision" shape-rendering="geometricPrecision" transform="matrix(1,0,0,1,-234,-268)" stroke="rgb(255,204,0)">
        <rect x="436.9268" width="68.1465" height="30" y="320" stroke="none"/>
      </g>
      <g text-rendering="geometricPrecision" stroke-miterlimit="1.45" shape-rendering="geometricPrecision" transform="matrix(1,0,0,1,-234,-268)" stroke-linecap="butt">
        <rect fill="none" x="436.9268" width="68.1465" height="30" y="320"/>
      </g>
      <g>
        <g text-rendering="geometricPrecision" stroke-miterlimit="1.45" shape-rendering="geometricPrecision" font-family="sans-serif" transform="matrix(1,0,0,1,-234,-268)" stroke-linecap="butt">
          <text x="443.9268" xml:space="preserve" y="339.5352" stroke="none">employer</text>
        </g>
      </g>
    </g>
    <g id="y.node.6">
      <g text-rendering="geometricPrecision" shape-rendering="geometricPrecision" transform="matrix(1,0,0,1,-234,-268)">
        <rect x="436.9268" width="68.1465" height="2" y="314" stroke="none"/>
        <rect x="436.9268" stroke-linecap="butt" y="314" fill="none" width="68.1465" height="2" stroke-miterlimit="1.45"/>
      </g>
    </g>
    <g id="y.node.7">
      <g fill="rgb(255,204,0)" text-rendering="geometricPrecision" shape-rendering="geometricPrecision" transform="matrix(1,0,0,1,-234,-268)" stroke="rgb(255,204,0)">
        <rect x="505.0732" width="69.9219" height="30" y="320" stroke="none"/>
      </g>
      <g text-rendering="geometricPrecision" stroke-miterlimit="1.45" shape-rendering="geometricPrecision" transform="matrix(1,0,0,1,-234,-268)" stroke-linecap="butt">
        <rect fill="none" x="505.0732" width="69.9219" height="30" y="320"/>
      </g>
      <g>
        <g text-rendering="geometricPrecision" stroke-miterlimit="1.45" shape-rendering="geometricPrecision" font-family="sans-serif" transform="matrix(1,0,0,1,-234,-268)" stroke-linecap="butt">
          <text x="512.0732" xml:space="preserve" y="339.5352" stroke="none">employee</text>
        </g>
      </g>
    </g>
    <g id="y.node.8">
      <g text-rendering="geometricPrecision" shape-rendering="geometricPrecision" transform="matrix(1,0,0,1,-234,-268)">
        <rect x="505.0732" width="69.9219" height="2" y="314" stroke="none"/>
        <rect x="505.0732" stroke-linecap="butt" y="314" fill="none" width="69.9219" height="2" stroke-miterlimit="1.45"/>
      </g>
    </g>
    <g id="y.node.9">
      <g fill="rgb(245,245,245)" text-rendering="geometricPrecision" shape-rendering="geometricPrecision" transform="matrix(1,0,0,1,-234,-268)" stroke="rgb(245,245,245)">
        <circle r="15" cx="701.9219" cy="435" stroke="none"/>
      </g>
      <g text-rendering="geometricPrecision" stroke-miterlimit="1.45" stroke-dasharray="6,2" shape-rendering="geometricPrecision" transform="matrix(1,0,0,1,-234,-268)" stroke-linecap="butt">
        <circle fill="none" r="15" cx="701.9219" cy="435"/>
      </g>
      <g>
        <g text-rendering="geometricPrecision" stroke-miterlimit="1.45" shape-rendering="geometricPrecision" font-family="sans-serif" transform="matrix(1,0,0,1,-234,-268)" stroke-linecap="butt">
          <text x="659.5674" xml:space="preserve" y="439.5352" stroke="none">person's name</text>
        </g>
      </g>
    </g>
    <g id="y.node.10">
      <g fill="rgb(245,245,245)" text-rendering="geometricPrecision" shape-rendering="geometricPrecision" transform="matrix(1,0,0,1,-234,-268)" stroke="rgb(245,245,245)">
        <circle r="15" cx="310" cy="429" stroke="none"/>
      </g>
      <g text-rendering="geometricPrecision" stroke-miterlimit="1.45" stroke-dasharray="6,2" shape-rendering="geometricPrecision" transform="matrix(1,0,0,1,-234,-268)" stroke-linecap="butt">
        <circle fill="none" r="15" cx="310" cy="429"/>
      </g>
      <g>
        <g text-rendering="geometricPrecision" stroke-miterlimit="1.45" shape-rendering="geometricPrecision" font-family="sans-serif" transform="matrix(1,0,0,1,-234,-268)" stroke-linecap="butt">
          <text x="251.2744" xml:space="preserve" y="433.5352" stroke="none">organisation's name</text>
        </g>
      </g>
    </g>
    <g id="y.edge.0">
      <g text-rendering="geometricPrecision" stroke-miterlimit="1.45" shape-rendering="geometricPrecision" transform="matrix(1,0,0,1,-234,-268)" stroke-linecap="butt">
        <path fill="none" d="M436.9268 335 L344 335"/>
        <path d="M336 335 C336 332.7909 337.7909 331 340 331 C342.2091 331 344 332.7909 344 335 C344 337.2091 342.2091 339 340 339 C337.7909 339 336 337.2091 336 335 Z" stroke="none"/>
      </g>
    </g>
    <g id="y.edge.1">
      <g text-rendering="geometricPrecision" stroke-miterlimit="1.45" shape-rendering="geometricPrecision" transform="matrix(1,0,0,1,-234,-268)" stroke-linecap="butt">
        <path fill="none" d="M574.9951 335 L671.9219 335"/>
      </g>
    </g>
    <g id="y.edge.2">
      <g text-rendering="geometricPrecision" stroke-miterlimit="1.45" shape-rendering="geometricPrecision" transform="matrix(1,0,0,1,-234,-268)" stroke-linecap="butt">
        <path fill="none" d="M701.9219 350 L701.9219 420"/>
      </g>
    </g>
    <g id="y.edge.3">
      <g text-rendering="geometricPrecision" stroke-miterlimit="1.45" shape-rendering="geometricPrecision" transform="matrix(1,0,0,1,-234,-268)" stroke-linecap="butt">
        <path fill="none" d="M310 350 L310 414"/>
      </g>
    </g>
  </g>
</svg>
