<?xml version="1.0" encoding="UTF-8"?><svg xmlns="http://www.w3.org/2000/svg" xmlns:xlink="http://www.w3.org/1999/xlink" fill-opacity="1" color-rendering="auto" color-interpolation="auto" text-rendering="auto" stroke="black" stroke-linecap="square" width="527" stroke-miterlimit="10" shape-rendering="auto" stroke-opacity="1" fill="black" stroke-dasharray="none" font-weight="normal" stroke-width="1" height="173" font-family="'Dialog'" font-style="normal" stroke-linejoin="miter" font-size="12px" stroke-dashoffset="0" image-rendering="auto">
  <!--Generated by ySVG 2.6-->
  <defs id="genericDefs"/>
  <g>
    <defs id="defs1">
      <clipPath clipPathUnits="userSpaceOnUse" id="clipPath1">
        <path d="M0 0 L527 0 L527 173 L0 173 L0 0 Z"/>
      </clipPath>
      <clipPath clipPathUnits="userSpaceOnUse" id="clipPath2">
        <path d="M357 148 L884 148 L884 321 L357 321 L357 148 Z"/>
      </clipPath>
    </defs>
    <g fill="white" text-rendering="geometricPrecision" shape-rendering="geometricPrecision" transform="translate(-357,-148)" stroke="white">
      <rect x="357" width="527" height="173" y="148" clip-path="url(#clipPath2)" stroke="none"/>
    </g>
    <g id="y.node.0">
      <a target="_blank" xlink:type="simple" xlink:href="urn:address" xlink:show="new">
        <g fill="rgb(245,245,245)" text-rendering="geometricPrecision" shape-rendering="geometricPrecision" transform="matrix(1,0,0,1,-357,-148)" stroke="rgb(245,245,245)">
          <ellipse rx="60" ry="30" cx="793.5684" cy="215.1328" stroke="none"/>
        </g>
        <g>
          <g font-size="15px" stroke-linecap="butt" transform="matrix(1,0,0,1,-357,-148)" text-rendering="geometricPrecision" font-family="sans-serif" shape-rendering="geometricPrecision" stroke-miterlimit="1.45">
            <text x="765.0918" xml:space="preserve" y="179.9688" stroke="none">address</text>
          </g>
        </g>
        <g/>
        <g text-rendering="geometricPrecision" stroke-miterlimit="1.45" shape-rendering="geometricPrecision" transform="matrix(1,0,0,1,-357,-148)" stroke-linecap="butt">
          <ellipse rx="60" fill="none" ry="30" cx="793.5684" cy="215.1328"/>
        </g>
      </a>
    </g>
    <g id="y.node.1">
      <g fill="rgb(255,204,0)" text-rendering="geometricPrecision" shape-rendering="geometricPrecision" transform="matrix(1,0,0,1,-357,-148)" stroke="rgb(255,204,0)">
        <rect x="748.5684" width="30" height="30" y="200.1328" stroke="none"/>
      </g>
      <g text-rendering="geometricPrecision" stroke-miterlimit="1.45" shape-rendering="geometricPrecision" transform="matrix(1,0,0,1,-357,-148)" stroke-linecap="butt">
        <rect fill="none" x="748.5684" width="30" height="30" y="200.1328"/>
      </g>
      <g/>
    </g>
    <g id="y.node.2">
      <g fill="rgb(255,204,0)" text-rendering="geometricPrecision" shape-rendering="geometricPrecision" transform="matrix(1,0,0,1,-357,-148)" stroke="rgb(255,204,0)">
        <rect x="778.5684" width="30" height="30" y="200.1328" stroke="none"/>
      </g>
      <g text-rendering="geometricPrecision" stroke-miterlimit="1.45" shape-rendering="geometricPrecision" transform="matrix(1,0,0,1,-357,-148)" stroke-linecap="butt">
        <rect fill="none" x="778.5684" width="30" height="30" y="200.1328"/>
      </g>
      <g/>
    </g>
    <g id="y.node.3">
      <g fill="rgb(255,204,0)" text-rendering="geometricPrecision" shape-rendering="geometricPrecision" transform="matrix(1,0,0,1,-357,-148)" stroke="rgb(255,204,0)">
        <rect x="808.5684" width="30" height="30" y="200.1328" stroke="none"/>
      </g>
      <g text-rendering="geometricPrecision" stroke-miterlimit="1.45" shape-rendering="geometricPrecision" transform="matrix(1,0,0,1,-357,-148)" stroke-linecap="butt">
        <rect fill="none" x="808.5684" width="30" height="30" y="200.1328"/>
      </g>
      <g/>
    </g>
    <g id="y.node.4">
      <a target="_blank" xlink:type="simple" xlink:href="urn:person" xlink:show="new">
        <g fill="rgb(245,245,245)" text-rendering="geometricPrecision" shape-rendering="geometricPrecision" transform="matrix(1,0,0,1,-357,-148)" stroke="rgb(245,245,245)">
          <circle r="30" cx="417" cy="215.1328" stroke="none"/>
        </g>
        <g>
          <g font-size="15px" stroke-linecap="butt" transform="matrix(1,0,0,1,-357,-148)" text-rendering="geometricPrecision" font-family="sans-serif" shape-rendering="geometricPrecision" stroke-miterlimit="1.45">
            <text x="391.9475" xml:space="preserve" y="179.9688" stroke="none">person</text>
          </g>
        </g>
        <g/>
        <g text-rendering="geometricPrecision" stroke-miterlimit="1.45" shape-rendering="geometricPrecision" transform="matrix(1,0,0,1,-357,-148)" stroke-linecap="butt">
          <circle fill="none" r="30" cx="417" cy="215.1328"/>
        </g>
      </a>
    </g>
    <g id="y.node.5">
      <g fill="rgb(255,204,0)" text-rendering="geometricPrecision" shape-rendering="geometricPrecision" transform="matrix(1,0,0,1,-357,-148)" stroke="rgb(255,204,0)">
        <rect x="402" width="30" height="30" y="200.1328" stroke="none"/>
      </g>
      <g text-rendering="geometricPrecision" stroke-miterlimit="1.45" shape-rendering="geometricPrecision" transform="matrix(1,0,0,1,-357,-148)" stroke-linecap="butt">
        <rect fill="none" x="402" width="30" height="30" y="200.1328"/>
      </g>
      <g/>
    </g>
    <g id="y.node.6">
      <a target="_blank" xlink:type="simple" xlink:href="urn:livingPlace" xlink:show="new">
        <g/>
      </a>
    </g>
    <g id="y.node.7">
      <g fill="rgb(255,204,0)" text-rendering="geometricPrecision" shape-rendering="geometricPrecision" transform="matrix(1,0,0,1,-357,-148)" stroke="rgb(255,204,0)">
        <rect x="563" width="92" height="30" y="200.1328" stroke="none"/>
      </g>
      <g text-rendering="geometricPrecision" stroke-miterlimit="1.45" shape-rendering="geometricPrecision" transform="matrix(1,0,0,1,-357,-148)" stroke-linecap="butt">
        <rect fill="none" x="563" width="92" height="30" y="200.1328"/>
      </g>
      <g>
        <g text-rendering="geometricPrecision" stroke-miterlimit="1.45" shape-rendering="geometricPrecision" font-family="sans-serif" transform="matrix(1,0,0,1,-357,-148)" stroke-linecap="butt">
          <text x="567.9668" xml:space="preserve" y="219.668" stroke="none">home address</text>
        </g>
      </g>
    </g>
    <g id="y.node.8">
      <g fill="rgb(255,204,0)" text-rendering="geometricPrecision" shape-rendering="geometricPrecision" transform="matrix(1,0,0,1,-357,-148)" stroke="rgb(255,204,0)">
        <rect x="533" width="30" height="30" y="200.1328" stroke="none"/>
      </g>
      <g text-rendering="geometricPrecision" stroke-miterlimit="1.45" shape-rendering="geometricPrecision" transform="matrix(1,0,0,1,-357,-148)" stroke-linecap="butt">
        <rect fill="none" x="533" width="30" height="30" y="200.1328"/>
      </g>
      <g/>
      <g>
        <g text-rendering="geometricPrecision" stroke-miterlimit="1.45" shape-rendering="geometricPrecision" font-family="sans-serif" transform="matrix(1,0,0,1,-357,-148)" stroke-linecap="butt">
          <text x="527.5684" xml:space="preserve" y="247.7344" stroke="none">lives at</text>
        </g>
      </g>
    </g>
    <g id="y.node.9">
      <g text-rendering="geometricPrecision" shape-rendering="geometricPrecision" transform="matrix(1,0,0,1,-357,-148)">
        <rect x="533" width="30" height="2" y="194.1328" stroke="none"/>
        <rect x="533" stroke-linecap="butt" y="194.1328" fill="none" width="30" height="2" stroke-miterlimit="1.45"/>
      </g>
    </g>
    <g id="y.node.10">
      <g fill="rgb(245,245,245)" text-rendering="geometricPrecision" shape-rendering="geometricPrecision" transform="matrix(1,0,0,1,-357,-148)" stroke="rgb(245,245,245)">
        <circle r="15" cx="417" cy="290.1328" stroke="none"/>
      </g>
      <g text-rendering="geometricPrecision" stroke-miterlimit="1.45" stroke-dasharray="6,2" shape-rendering="geometricPrecision" transform="matrix(1,0,0,1,-357,-148)" stroke-linecap="butt">
        <circle fill="none" r="15" cx="417" cy="290.1328"/>
      </g>
      <g>
        <g text-rendering="geometricPrecision" stroke-miterlimit="1.45" shape-rendering="geometricPrecision" font-family="sans-serif" transform="matrix(1,0,0,1,-357,-148)" stroke-linecap="butt">
          <text x="374.6455" xml:space="preserve" y="294.668" stroke="none">person's name</text>
        </g>
      </g>
    </g>
    <g id="y.node.11">
      <g fill="rgb(245,245,245)" text-rendering="geometricPrecision" shape-rendering="geometricPrecision" transform="matrix(1,0,0,1,-357,-148)" stroke="rgb(245,245,245)">
        <circle r="15" cx="712" cy="290.1328" stroke="none"/>
      </g>
      <g text-rendering="geometricPrecision" stroke-miterlimit="1.45" stroke-dasharray="6,2" shape-rendering="geometricPrecision" transform="matrix(1,0,0,1,-357,-148)" stroke-linecap="butt">
        <circle fill="none" r="15" cx="712" cy="290.1328"/>
      </g>
      <g>
        <g text-rendering="geometricPrecision" stroke-miterlimit="1.45" shape-rendering="geometricPrecision" font-family="sans-serif" transform="matrix(1,0,0,1,-357,-148)" stroke-linecap="butt">
          <text x="669.9443" xml:space="preserve" y="294.668" stroke="none">house number</text>
        </g>
      </g>
    </g>
    <g id="y.node.12">
      <g fill="rgb(245,245,245)" text-rendering="geometricPrecision" shape-rendering="geometricPrecision" transform="matrix(1,0,0,1,-357,-148)" stroke="rgb(245,245,245)">
        <circle r="15" cx="793.5684" cy="290.1328" stroke="none"/>
      </g>
      <g text-rendering="geometricPrecision" stroke-miterlimit="1.45" stroke-dasharray="6,2" shape-rendering="geometricPrecision" transform="matrix(1,0,0,1,-357,-148)" stroke-linecap="butt">
        <circle fill="none" r="15" cx="793.5684" cy="290.1328"/>
      </g>
      <g>
        <g text-rendering="geometricPrecision" stroke-miterlimit="1.45" shape-rendering="geometricPrecision" font-family="sans-serif" transform="matrix(1,0,0,1,-357,-148)" stroke-linecap="butt">
          <text x="759.001" xml:space="preserve" y="294.668" stroke="none">street name</text>
        </g>
      </g>
    </g>
    <g id="y.node.13">
      <g fill="rgb(245,245,245)" text-rendering="geometricPrecision" shape-rendering="geometricPrecision" transform="matrix(1,0,0,1,-357,-148)" stroke="rgb(245,245,245)">
        <circle r="15" cx="853.5684" cy="290.1328" stroke="none"/>
      </g>
      <g text-rendering="geometricPrecision" stroke-miterlimit="1.45" stroke-dasharray="6,2" shape-rendering="geometricPrecision" transform="matrix(1,0,0,1,-357,-148)" stroke-linecap="butt">
        <circle fill="none" r="15" cx="853.5684" cy="290.1328"/>
      </g>
      <g>
        <g text-rendering="geometricPrecision" stroke-miterlimit="1.45" shape-rendering="geometricPrecision" font-family="sans-serif" transform="matrix(1,0,0,1,-357,-148)" stroke-linecap="butt">
          <text x="843.3818" xml:space="preserve" y="294.668" stroke="none">city</text>
        </g>
      </g>
    </g>
    <g id="y.edge.3">
      <g text-rendering="geometricPrecision" stroke-miterlimit="1.45" shape-rendering="geometricPrecision" transform="matrix(1,0,0,1,-357,-148)" stroke-linecap="butt">
        <path fill="none" d="M655 215.1328 L733.5684 215.1328"/>
      </g>
    </g>
    <g id="y.edge.4">
      <g text-rendering="geometricPrecision" stroke-miterlimit="1.45" shape-rendering="geometricPrecision" transform="matrix(1,0,0,1,-357,-148)" stroke-linecap="butt">
        <path fill="none" d="M533 215.1328 L447 215.1328"/>
      </g>
    </g>
    <g id="y.edge.1">
      <g text-rendering="geometricPrecision" stroke-miterlimit="1.45" shape-rendering="geometricPrecision" transform="matrix(1,0,0,1,-357,-148)" stroke-linecap="butt">
        <path fill="none" d="M417 230.1328 L417 275.1328"/>
      </g>
    </g>
    <g id="y.edge.0">
      <g text-rendering="geometricPrecision" stroke-miterlimit="1.45" shape-rendering="geometricPrecision" transform="matrix(1,0,0,1,-357,-148)" stroke-linecap="butt">
        <path fill="none" d="M753.2547 230.1328 L720.4986 277.7726"/>
      </g>
    </g>
    <g id="y.edge.2">
      <g text-rendering="geometricPrecision" stroke-miterlimit="1.45" shape-rendering="geometricPrecision" transform="matrix(1,0,0,1,-357,-148)" stroke-linecap="butt">
        <path fill="none" d="M793.5684 230.1328 L793.5684 275.1328"/>
      </g>
    </g>
    <g id="y.edge.5">
      <g text-rendering="geometricPrecision" stroke-miterlimit="1.45" shape-rendering="geometricPrecision" transform="matrix(1,0,0,1,-357,-148)" stroke-linecap="butt">
        <path fill="none" d="M829.5684 230.1328 L847.9975 276.2057"/>
      </g>
    </g>
  </g>
</svg>
