<?xml version="1.0" encoding="UTF-8"?><svg xmlns="http://www.w3.org/2000/svg" xmlns:xlink="http://www.w3.org/1999/xlink" fill-opacity="1" color-rendering="auto" color-interpolation="auto" text-rendering="auto" stroke="black" stroke-linecap="square" width="474" stroke-miterlimit="10" shape-rendering="auto" stroke-opacity="1" fill="black" stroke-dasharray="none" font-weight="normal" stroke-width="1" height="172" font-family="'Dialog'" font-style="normal" stroke-linejoin="miter" font-size="12px" stroke-dashoffset="0" image-rendering="auto">
  <!--Generated by ySVG 2.6-->
  <defs id="genericDefs"/>
  <g>
    <defs id="defs1">
      <clipPath clipPathUnits="userSpaceOnUse" id="clipPath1">
        <path d="M0 0 L474 0 L474 172 L0 172 L0 0 Z"/>
      </clipPath>
      <clipPath clipPathUnits="userSpaceOnUse" id="clipPath2">
        <path d="M433 208 L907 208 L907 380 L433 380 L433 208 Z"/>
      </clipPath>
    </defs>
    <g fill="white" text-rendering="geometricPrecision" shape-rendering="geometricPrecision" transform="translate(-433,-208)" stroke="white">
      <rect x="433" width="474" height="172" y="208" clip-path="url(#clipPath2)" stroke="none"/>
    </g>
    <g id="y.node.0">
      <a target="_blank" xlink:type="simple" xlink:href="urn:address" xlink:show="new">
        <g fill="rgb(245,245,245)" text-rendering="geometricPrecision" shape-rendering="geometricPrecision" transform="matrix(1,0,0,1,-433,-208)" stroke="rgb(245,245,245)">
          <ellipse rx="60" ry="30" cx="824" cy="275" stroke="none"/>
        </g>
        <g>
          <g font-size="15px" stroke-linecap="butt" transform="matrix(1,0,0,1,-433,-208)" text-rendering="geometricPrecision" font-family="sans-serif" shape-rendering="geometricPrecision" stroke-miterlimit="1.45">
            <text x="795.5234" xml:space="preserve" y="239.8359" stroke="none">address</text>
          </g>
        </g>
        <g/>
        <g text-rendering="geometricPrecision" stroke-miterlimit="1.45" shape-rendering="geometricPrecision" transform="matrix(1,0,0,1,-433,-208)" stroke-linecap="butt">
          <ellipse rx="60" fill="none" ry="30" cx="824" cy="275"/>
        </g>
      </a>
    </g>
    <g id="y.node.1">
      <g fill="rgb(255,204,0)" text-rendering="geometricPrecision" shape-rendering="geometricPrecision" transform="matrix(1,0,0,1,-433,-208)" stroke="rgb(255,204,0)">
        <rect x="779" width="30" height="30" y="260" stroke="none"/>
      </g>
      <g text-rendering="geometricPrecision" stroke-miterlimit="1.45" shape-rendering="geometricPrecision" transform="matrix(1,0,0,1,-433,-208)" stroke-linecap="butt">
        <rect fill="none" x="779" width="30" height="30" y="260"/>
      </g>
      <g/>
    </g>
    <g id="y.node.2">
      <g fill="rgb(255,204,0)" text-rendering="geometricPrecision" shape-rendering="geometricPrecision" transform="matrix(1,0,0,1,-433,-208)" stroke="rgb(255,204,0)">
        <rect x="809" width="30" height="30" y="260" stroke="none"/>
      </g>
      <g text-rendering="geometricPrecision" stroke-miterlimit="1.45" shape-rendering="geometricPrecision" transform="matrix(1,0,0,1,-433,-208)" stroke-linecap="butt">
        <rect fill="none" x="809" width="30" height="30" y="260"/>
      </g>
      <g/>
    </g>
    <g id="y.node.3">
      <g fill="rgb(255,204,0)" text-rendering="geometricPrecision" shape-rendering="geometricPrecision" transform="matrix(1,0,0,1,-433,-208)" stroke="rgb(255,204,0)">
        <rect x="839" width="30" height="30" y="260" stroke="none"/>
      </g>
      <g text-rendering="geometricPrecision" stroke-miterlimit="1.45" shape-rendering="geometricPrecision" transform="matrix(1,0,0,1,-433,-208)" stroke-linecap="butt">
        <rect fill="none" x="839" width="30" height="30" y="260"/>
      </g>
      <g/>
    </g>
    <g id="y.node.4">
      <a target="_blank" xlink:type="simple" xlink:href="urn:person" xlink:show="new">
        <g fill="rgb(245,245,245)" text-rendering="geometricPrecision" shape-rendering="geometricPrecision" transform="matrix(1,0,0,1,-433,-208)" stroke="rgb(245,245,245)">
          <circle r="30" cx="478" cy="275" stroke="none"/>
        </g>
        <g>
          <g font-size="15px" stroke-linecap="butt" transform="matrix(1,0,0,1,-433,-208)" text-rendering="geometricPrecision" font-family="sans-serif" shape-rendering="geometricPrecision" stroke-miterlimit="1.45">
            <text x="452.9475" xml:space="preserve" y="239.8359" stroke="none">person</text>
          </g>
        </g>
        <g/>
        <g text-rendering="geometricPrecision" stroke-miterlimit="1.45" shape-rendering="geometricPrecision" transform="matrix(1,0,0,1,-433,-208)" stroke-linecap="butt">
          <circle fill="none" r="30" cx="478" cy="275"/>
        </g>
      </a>
    </g>
    <g id="y.node.5">
      <g fill="rgb(255,204,0)" text-rendering="geometricPrecision" shape-rendering="geometricPrecision" transform="matrix(1,0,0,1,-433,-208)" stroke="rgb(255,204,0)">
        <rect x="463" width="30" height="30" y="260" stroke="none"/>
      </g>
      <g text-rendering="geometricPrecision" stroke-miterlimit="1.45" shape-rendering="geometricPrecision" transform="matrix(1,0,0,1,-433,-208)" stroke-linecap="butt">
        <rect fill="none" x="463" width="30" height="30" y="260"/>
      </g>
      <g/>
    </g>
    <g id="y.node.6">
      <a target="_blank" xlink:type="simple" xlink:href="urn:livingPlace" xlink:show="new">
        <g>
          <g text-rendering="geometricPrecision" stroke-miterlimit="1.45" shape-rendering="geometricPrecision" font-family="sans-serif" transform="matrix(1,0,0,1,-433,-208)" stroke-linecap="butt">
            <text x="554.2773" xml:space="preserve" y="308.6016" stroke="none">[Person] lives at [Address]</text>
          </g>
        </g>
      </a>
    </g>
    <g id="y.node.7">
      <g fill="rgb(255,204,0)" text-rendering="geometricPrecision" shape-rendering="geometricPrecision" transform="matrix(1,0,0,1,-433,-208)" stroke="rgb(255,204,0)">
        <rect x="600" width="90" height="30" y="260" stroke="none"/>
      </g>
      <g text-rendering="geometricPrecision" stroke-miterlimit="1.45" shape-rendering="geometricPrecision" transform="matrix(1,0,0,1,-433,-208)" stroke-linecap="butt">
        <rect fill="none" x="600" width="90" height="30" y="260"/>
      </g>
      <g>
        <g text-rendering="geometricPrecision" stroke-miterlimit="1.45" shape-rendering="geometricPrecision" font-family="sans-serif" transform="matrix(1,0,0,1,-433,-208)" stroke-linecap="butt">
          <text x="603.9668" xml:space="preserve" y="279.5352" stroke="none">home address</text>
        </g>
      </g>
    </g>
    <g id="y.node.8">
      <g fill="rgb(255,204,0)" text-rendering="geometricPrecision" shape-rendering="geometricPrecision" transform="matrix(1,0,0,1,-433,-208)" stroke="rgb(255,204,0)">
        <rect x="569" width="30" height="30" y="260" stroke="none"/>
      </g>
      <g text-rendering="geometricPrecision" stroke-miterlimit="1.45" shape-rendering="geometricPrecision" transform="matrix(1,0,0,1,-433,-208)" stroke-linecap="butt">
        <rect fill="none" x="569" width="30" height="30" y="260"/>
      </g>
      <g/>
    </g>
    <g id="y.node.9">
      <g text-rendering="geometricPrecision" shape-rendering="geometricPrecision" transform="matrix(1,0,0,1,-433,-208)">
        <rect x="569" width="30" height="2" y="254" stroke="none"/>
        <rect x="569" stroke-linecap="butt" y="254" fill="none" width="30" height="2" stroke-miterlimit="1.45"/>
      </g>
    </g>
    <g id="y.node.10">
      <g fill="rgb(245,245,245)" text-rendering="geometricPrecision" shape-rendering="geometricPrecision" transform="matrix(1,0,0,1,-433,-208)" stroke="rgb(245,245,245)">
        <circle r="15" cx="744" cy="350" stroke="none"/>
      </g>
      <g text-rendering="geometricPrecision" stroke-miterlimit="1.45" stroke-dasharray="6,2" shape-rendering="geometricPrecision" transform="matrix(1,0,0,1,-433,-208)" stroke-linecap="butt">
        <circle fill="none" r="15" cx="744" cy="350"/>
      </g>
      <g>
        <g text-rendering="geometricPrecision" stroke-miterlimit="1.45" shape-rendering="geometricPrecision" font-family="sans-serif" transform="matrix(1,0,0,1,-433,-208)" stroke-linecap="butt">
          <text x="701.9443" xml:space="preserve" y="354.5352" stroke="none">house number</text>
        </g>
      </g>
    </g>
    <g id="y.node.11">
      <g fill="rgb(245,245,245)" text-rendering="geometricPrecision" shape-rendering="geometricPrecision" transform="matrix(1,0,0,1,-433,-208)" stroke="rgb(245,245,245)">
        <circle r="15" cx="824" cy="350" stroke="none"/>
      </g>
      <g text-rendering="geometricPrecision" stroke-miterlimit="1.45" stroke-dasharray="6,2" shape-rendering="geometricPrecision" transform="matrix(1,0,0,1,-433,-208)" stroke-linecap="butt">
        <circle fill="none" r="15" cx="824" cy="350"/>
      </g>
      <g>
        <g text-rendering="geometricPrecision" stroke-miterlimit="1.45" shape-rendering="geometricPrecision" font-family="sans-serif" transform="matrix(1,0,0,1,-433,-208)" stroke-linecap="butt">
          <text x="789.4326" xml:space="preserve" y="354.5352" stroke="none">street name</text>
        </g>
      </g>
    </g>
    <g id="y.node.12">
      <g fill="rgb(245,245,245)" text-rendering="geometricPrecision" shape-rendering="geometricPrecision" transform="matrix(1,0,0,1,-433,-208)" stroke="rgb(245,245,245)">
        <circle r="15" cx="877" cy="350" stroke="none"/>
      </g>
      <g text-rendering="geometricPrecision" stroke-miterlimit="1.45" stroke-dasharray="6,2" shape-rendering="geometricPrecision" transform="matrix(1,0,0,1,-433,-208)" stroke-linecap="butt">
        <circle fill="none" r="15" cx="877" cy="350"/>
      </g>
      <g>
        <g text-rendering="geometricPrecision" stroke-miterlimit="1.45" shape-rendering="geometricPrecision" font-family="sans-serif" transform="matrix(1,0,0,1,-433,-208)" stroke-linecap="butt">
          <text x="866.8135" xml:space="preserve" y="354.5352" stroke="none">city</text>
        </g>
      </g>
    </g>
    <g id="y.edge.0">
      <g text-rendering="geometricPrecision" stroke-miterlimit="1.45" shape-rendering="geometricPrecision" transform="matrix(1,0,0,1,-433,-208)" stroke-linecap="butt">
        <path fill="none" d="M690 275 L764 275"/>
      </g>
    </g>
    <g id="y.edge.2">
      <g text-rendering="geometricPrecision" stroke-miterlimit="1.45" shape-rendering="geometricPrecision" transform="matrix(1,0,0,1,-433,-208)" stroke-linecap="butt">
        <path fill="none" d="M569 275 L508 275"/>
      </g>
    </g>
    <g id="y.edge.3">
      <g text-rendering="geometricPrecision" stroke-miterlimit="1.45" shape-rendering="geometricPrecision" transform="matrix(1,0,0,1,-433,-208)" stroke-linecap="butt">
        <path fill="none" d="M784 290 L752.3205 337.5193"/>
      </g>
    </g>
    <g id="y.edge.4">
      <g text-rendering="geometricPrecision" stroke-miterlimit="1.45" shape-rendering="geometricPrecision" transform="matrix(1,0,0,1,-433,-208)" stroke-linecap="butt">
        <path fill="none" d="M824 290 L824 335"/>
      </g>
    </g>
    <g id="y.edge.1">
      <g text-rendering="geometricPrecision" stroke-miterlimit="1.45" shape-rendering="geometricPrecision" transform="matrix(1,0,0,1,-433,-208)" stroke-linecap="butt">
        <path fill="none" d="M858.6 290 L872.6022 335.6592"/>
      </g>
    </g>
  </g>
</svg>
