<?xml version="1.0" encoding="UTF-8"?><svg xmlns="http://www.w3.org/2000/svg" xmlns:xlink="http://www.w3.org/1999/xlink" fill-opacity="1" color-rendering="auto" color-interpolation="auto" text-rendering="auto" stroke="black" stroke-linecap="square" width="508" stroke-miterlimit="10" shape-rendering="auto" stroke-opacity="1" fill="black" stroke-dasharray="none" font-weight="normal" stroke-width="1" height="195" font-family="'Dialog'" font-style="normal" stroke-linejoin="miter" font-size="12px" stroke-dashoffset="0" image-rendering="auto">
  <!--Generated by ySVG 2.6-->
  <defs id="genericDefs"/>
  <g>
    <defs id="defs1">
      <clipPath clipPathUnits="userSpaceOnUse" id="clipPath1">
        <path d="M0 0 L508 0 L508 195 L0 195 L0 0 Z"/>
      </clipPath>
      <clipPath clipPathUnits="userSpaceOnUse" id="clipPath2">
        <path d="M183 309 L691 309 L691 504 L183 504 L183 309 Z"/>
      </clipPath>
    </defs>
    <g fill="white" text-rendering="geometricPrecision" shape-rendering="geometricPrecision" transform="translate(-183,-309)" stroke="white">
      <rect x="183" width="508" height="195" y="309" clip-path="url(#clipPath2)" stroke="none"/>
    </g>
    <g id="y.node.0">
      <a target="_blank" xlink:type="simple" xlink:href="urn:persoon" xlink:show="new">
        <g fill="rgb(245,245,245)" text-rendering="geometricPrecision" shape-rendering="geometricPrecision" transform="matrix(1,0,0,1,-183,-309)" stroke="rgb(245,245,245)">
          <circle r="30" cx="631" cy="376" stroke="none"/>
        </g>
        <g>
          <g font-size="15px" stroke-linecap="butt" transform="matrix(1,0,0,1,-183,-309)" text-rendering="geometricPrecision" font-family="sans-serif" shape-rendering="geometricPrecision" stroke-miterlimit="1.45">
            <text x="605.9475" xml:space="preserve" y="340.8359" stroke="none">person</text>
          </g>
        </g>
        <g/>
        <g text-rendering="geometricPrecision" stroke-miterlimit="1.45" shape-rendering="geometricPrecision" transform="matrix(1,0,0,1,-183,-309)" stroke-linecap="butt">
          <circle fill="none" r="30" cx="631" cy="376"/>
        </g>
      </a>
    </g>
    <g id="y.node.1">
      <g fill="rgb(255,204,0)" text-rendering="geometricPrecision" shape-rendering="geometricPrecision" transform="matrix(1,0,0,1,-183,-309)" stroke="rgb(255,204,0)">
        <rect x="616" width="30" height="30" y="361" stroke="none"/>
      </g>
      <g text-rendering="geometricPrecision" stroke-miterlimit="1.45" shape-rendering="geometricPrecision" transform="matrix(1,0,0,1,-183,-309)" stroke-linecap="butt">
        <rect fill="none" x="616" width="30" height="30" y="361"/>
      </g>
      <g/>
    </g>
    <g id="y.node.2">
      <a target="_blank" xlink:type="simple" xlink:href="urn:organisation" xlink:show="new">
        <g fill="rgb(245,245,245)" text-rendering="geometricPrecision" shape-rendering="geometricPrecision" transform="matrix(1,0,0,1,-183,-309)" stroke="rgb(245,245,245)">
          <circle r="30" cx="259" cy="376" stroke="none"/>
        </g>
        <g>
          <g font-size="15px" stroke-linecap="butt" transform="matrix(1,0,0,1,-183,-309)" text-rendering="geometricPrecision" font-family="sans-serif" shape-rendering="geometricPrecision" stroke-miterlimit="1.45">
            <text x="213.4836" xml:space="preserve" y="340.8359" stroke="none">organisation</text>
          </g>
        </g>
        <g/>
        <g text-rendering="geometricPrecision" stroke-miterlimit="1.45" shape-rendering="geometricPrecision" transform="matrix(1,0,0,1,-183,-309)" stroke-linecap="butt">
          <circle fill="none" r="30" cx="259" cy="376"/>
        </g>
      </a>
    </g>
    <g id="y.node.3">
      <g fill="rgb(255,204,0)" text-rendering="geometricPrecision" shape-rendering="geometricPrecision" transform="matrix(1,0,0,1,-183,-309)" stroke="rgb(255,204,0)">
        <rect x="244" width="30" height="30" y="361" stroke="none"/>
      </g>
      <g text-rendering="geometricPrecision" stroke-miterlimit="1.45" shape-rendering="geometricPrecision" transform="matrix(1,0,0,1,-183,-309)" stroke-linecap="butt">
        <rect fill="none" x="244" width="30" height="30" y="361"/>
      </g>
      <g/>
    </g>
    <g id="y.node.4">
      <a target="_blank" xlink:type="simple" xlink:href="urn:employment" xlink:show="new">
        <g>
          <g font-size="15px" stroke-linecap="butt" transform="matrix(1,0,0,1,-183,-309)" text-rendering="geometricPrecision" font-family="sans-serif" shape-rendering="geometricPrecision" stroke-miterlimit="1.45">
            <text x="383.7656" xml:space="preserve" y="344.8359" stroke="none">employment</text>
          </g>
        </g>
        <g>
          <g text-rendering="geometricPrecision" stroke-miterlimit="1.45" shape-rendering="geometricPrecision" font-family="sans-serif" transform="matrix(1,0,0,1,-183,-309)" stroke-linecap="butt">
            <text x="320.0918" xml:space="preserve" y="413.6016" stroke="none">[Organization] has employee [Person]</text>
            <text x="320.9795" xml:space="preserve" y="427.7344" stroke="none">[Person] has employer [Organization]</text>
            <text x="332.4727" xml:space="preserve" y="441.8672" stroke="none">[Person] works for [Organization]</text>
          </g>
        </g>
      </a>
    </g>
    <g id="y.node.5">
      <g fill="rgb(255,204,0)" text-rendering="geometricPrecision" shape-rendering="geometricPrecision" transform="matrix(1,0,0,1,-183,-309)" stroke="rgb(255,204,0)">
        <rect x="369" width="60" height="30" y="361" stroke="none"/>
      </g>
      <g text-rendering="geometricPrecision" stroke-miterlimit="1.45" shape-rendering="geometricPrecision" transform="matrix(1,0,0,1,-183,-309)" stroke-linecap="butt">
        <rect fill="none" x="369" width="60" height="30" y="361"/>
      </g>
      <g>
        <g text-rendering="geometricPrecision" stroke-miterlimit="1.45" shape-rendering="geometricPrecision" font-family="sans-serif" transform="matrix(1,0,0,1,-183,-309)" stroke-linecap="butt">
          <text x="371.9268" xml:space="preserve" y="380.5352" stroke="none">employer</text>
        </g>
      </g>
    </g>
    <g id="y.node.6">
      <g text-rendering="geometricPrecision" shape-rendering="geometricPrecision" transform="matrix(1,0,0,1,-183,-309)">
        <rect x="369" width="60" height="2" y="355" stroke="none"/>
        <rect x="369" stroke-linecap="butt" y="355" fill="none" width="60" height="2" stroke-miterlimit="1.45"/>
      </g>
    </g>
    <g id="y.node.7">
      <g fill="rgb(255,204,0)" text-rendering="geometricPrecision" shape-rendering="geometricPrecision" transform="matrix(1,0,0,1,-183,-309)" stroke="rgb(255,204,0)">
        <rect x="429" width="60" height="30" y="361" stroke="none"/>
      </g>
      <g text-rendering="geometricPrecision" stroke-miterlimit="1.45" shape-rendering="geometricPrecision" transform="matrix(1,0,0,1,-183,-309)" stroke-linecap="butt">
        <rect fill="none" x="429" width="60" height="30" y="361"/>
      </g>
      <g>
        <g text-rendering="geometricPrecision" stroke-miterlimit="1.45" shape-rendering="geometricPrecision" font-family="sans-serif" transform="matrix(1,0,0,1,-183,-309)" stroke-linecap="butt">
          <text x="431.0391" xml:space="preserve" y="380.5352" stroke="none">employee</text>
        </g>
      </g>
    </g>
    <g id="y.node.8">
      <g text-rendering="geometricPrecision" shape-rendering="geometricPrecision" transform="matrix(1,0,0,1,-183,-309)">
        <rect x="429" width="60" height="2" y="355" stroke="none"/>
        <rect x="429" stroke-linecap="butt" y="355" fill="none" width="60" height="2" stroke-miterlimit="1.45"/>
      </g>
    </g>
    <g id="y.node.9">
      <g fill="rgb(245,245,245)" text-rendering="geometricPrecision" shape-rendering="geometricPrecision" transform="matrix(1,0,0,1,-183,-309)" stroke="rgb(245,245,245)">
        <circle r="15" cx="631" cy="474" stroke="none"/>
      </g>
      <g text-rendering="geometricPrecision" stroke-miterlimit="1.45" stroke-dasharray="6,2" shape-rendering="geometricPrecision" transform="matrix(1,0,0,1,-183,-309)" stroke-linecap="butt">
        <circle fill="none" r="15" cx="631" cy="474"/>
      </g>
      <g>
        <g text-rendering="geometricPrecision" stroke-miterlimit="1.45" shape-rendering="geometricPrecision" font-family="sans-serif" transform="matrix(1,0,0,1,-183,-309)" stroke-linecap="butt">
          <text x="588.6455" xml:space="preserve" y="478.5352" stroke="none">person's name</text>
        </g>
      </g>
    </g>
    <g id="y.node.10">
      <g fill="rgb(245,245,245)" text-rendering="geometricPrecision" shape-rendering="geometricPrecision" transform="matrix(1,0,0,1,-183,-309)" stroke="rgb(245,245,245)">
        <circle r="15" cx="259" cy="474" stroke="none"/>
      </g>
      <g text-rendering="geometricPrecision" stroke-miterlimit="1.45" stroke-dasharray="6,2" shape-rendering="geometricPrecision" transform="matrix(1,0,0,1,-183,-309)" stroke-linecap="butt">
        <circle fill="none" r="15" cx="259" cy="474"/>
      </g>
      <g>
        <g text-rendering="geometricPrecision" stroke-miterlimit="1.45" shape-rendering="geometricPrecision" font-family="sans-serif" transform="matrix(1,0,0,1,-183,-309)" stroke-linecap="butt">
          <text x="200.2744" xml:space="preserve" y="478.5352" stroke="none">organisation's name</text>
        </g>
      </g>
    </g>
    <g id="y.edge.0">
      <g text-rendering="geometricPrecision" stroke-miterlimit="1.45" shape-rendering="geometricPrecision" transform="matrix(1,0,0,1,-183,-309)" stroke-linecap="butt">
        <path fill="none" d="M369 376 L293 376"/>
        <path d="M285 376 C285 373.7909 286.7909 372 289 372 C291.2091 372 293 373.7909 293 376 C293 378.2091 291.2091 380 289 380 C286.7909 380 285 378.2091 285 376 Z" stroke="none"/>
      </g>
    </g>
    <g id="y.edge.2">
      <g text-rendering="geometricPrecision" stroke-miterlimit="1.45" shape-rendering="geometricPrecision" transform="matrix(1,0,0,1,-183,-309)" stroke-linecap="butt">
        <path fill="none" d="M489 376 L601 376"/>
      </g>
    </g>
    <g id="y.edge.3">
      <g text-rendering="geometricPrecision" stroke-miterlimit="1.45" shape-rendering="geometricPrecision" transform="matrix(1,0,0,1,-183,-309)" stroke-linecap="butt">
        <path fill="none" d="M631 391 L631 459"/>
      </g>
    </g>
    <g id="y.edge.1">
      <g text-rendering="geometricPrecision" stroke-miterlimit="1.45" shape-rendering="geometricPrecision" transform="matrix(1,0,0,1,-183,-309)" stroke-linecap="butt">
        <path fill="none" d="M259 391 L259 459"/>
      </g>
    </g>
  </g>
</svg>
