<?xml version="1.0" encoding="UTF-8"?><svg xmlns="http://www.w3.org/2000/svg" xmlns:xlink="http://www.w3.org/1999/xlink" fill-opacity="1" color-rendering="auto" color-interpolation="auto" text-rendering="auto" stroke="black" stroke-linecap="square" width="834" stroke-miterlimit="10" shape-rendering="auto" stroke-opacity="1" fill="black" stroke-dasharray="none" font-weight="normal" stroke-width="1" height="411" font-family="'Dialog'" font-style="normal" stroke-linejoin="miter" font-size="12px" stroke-dashoffset="0" image-rendering="auto">
  <!--Generated by ySVG 2.6-->
  <defs id="genericDefs"/>
  <g>
    <defs id="defs1">
      <clipPath clipPathUnits="userSpaceOnUse" id="clipPath1">
        <path d="M0 0 L834 0 L834 411 L0 411 L0 0 Z"/>
      </clipPath>
      <clipPath clipPathUnits="userSpaceOnUse" id="clipPath2">
        <path d="M229 130 L1063 130 L1063 541 L229 541 L229 130 Z"/>
      </clipPath>
      <clipPath clipPathUnits="userSpaceOnUse" id="clipPath3">
        <path d="M791 145 L1048 145 L1048 225 L791 225 L791 145 Z"/>
      </clipPath>
      <clipPath clipPathUnits="userSpaceOnUse" id="clipPath4">
        <path d="M244 421 L445 421 L445 526 L244 526 L244 421 Z"/>
      </clipPath>
      <clipPath clipPathUnits="userSpaceOnUse" id="clipPath5">
        <path d="M250 145 L439 145 L439 225 L250 225 L250 145 Z"/>
      </clipPath>
    </defs>
    <g fill="white" text-rendering="geometricPrecision" shape-rendering="geometricPrecision" transform="translate(-229,-130)" stroke="white">
      <rect x="229" width="834" height="411" y="130" clip-path="url(#clipPath2)" stroke="none"/>
    </g>
    <g id="y.node.0">
      <a target="_blank" xlink:type="simple" xlink:href="urn:facttype:organisation" xlink:show="new">
        <g fill="rgb(255,255,199)" text-rendering="geometricPrecision" shape-rendering="geometricPrecision" transform="matrix(1,0,0,1,-229,-130)" stroke="rgb(255,255,199)">
          <rect x="791" width="257" height="80" y="145" stroke="none"/>
        </g>
        <g text-rendering="geometricPrecision" stroke-miterlimit="1.45" shape-rendering="geometricPrecision" transform="matrix(1,0,0,1,-229,-130)" stroke-linecap="butt">
          <rect fill="none" x="791" width="257" height="80" y="145"/>
          <text x="869.001" xml:space="preserve" y="161.6016" clip-path="url(#clipPath3)" font-family="sans-serif" stroke="none">&lt;&lt;Objecttype&gt;&gt;</text>
        </g>
        <g>
          <g font-size="13px" stroke-linecap="butt" transform="matrix(1,0,0,1,-229,-130)" text-rendering="geometricPrecision" font-family="sans-serif" shape-rendering="geometricPrecision" font-weight="bold" stroke-miterlimit="1.45">
            <text x="877.2373" xml:space="preserve" y="185.7012" clip-path="url(#clipPath3)" stroke="none">organisation</text>
          </g>
        </g>
        <g text-rendering="geometricPrecision" shape-rendering="geometricPrecision" transform="matrix(1,0,0,1,-229,-130)">
          <line y2="193" fill="none" x1="792" clip-path="url(#clipPath3)" x2="1047" y1="193"/>
          <text stroke-linecap="butt" x="796" y="210.0449" clip-path="url(#clipPath3)" font-family="sans-serif" stroke="none" stroke-miterlimit="1.45" xml:space="preserve">organisation's name: organisation's name</text>
          <line y2="217" fill="none" x1="792" clip-path="url(#clipPath3)" x2="1047" y1="217"/>
        </g>
      </a>
    </g>
    <g id="y.node.1">
      <a target="_blank" xlink:type="simple" xlink:href="urn:facttype:address" xlink:show="new">
        <g fill="rgb(255,255,199)" text-rendering="geometricPrecision" shape-rendering="geometricPrecision" transform="matrix(1,0,0,1,-229,-130)" stroke="rgb(255,255,199)">
          <rect x="244" width="201" height="105" y="421" stroke="none"/>
        </g>
        <g text-rendering="geometricPrecision" stroke-miterlimit="1.45" shape-rendering="geometricPrecision" transform="matrix(1,0,0,1,-229,-130)" stroke-linecap="butt">
          <rect fill="none" x="244" width="201" height="105" y="421"/>
          <text x="294.001" xml:space="preserve" y="437.6016" clip-path="url(#clipPath4)" font-family="sans-serif" stroke="none">&lt;&lt;Objecttype&gt;&gt;</text>
        </g>
        <g>
          <g font-size="13px" stroke-linecap="butt" transform="matrix(1,0,0,1,-229,-130)" text-rendering="geometricPrecision" font-family="sans-serif" shape-rendering="geometricPrecision" font-weight="bold" stroke-miterlimit="1.45">
            <text x="317.9509" xml:space="preserve" y="461.7012" clip-path="url(#clipPath4)" stroke="none">address</text>
          </g>
        </g>
        <g text-rendering="geometricPrecision" shape-rendering="geometricPrecision" transform="matrix(1,0,0,1,-229,-130)">
          <line y2="469" fill="none" x1="245" clip-path="url(#clipPath4)" x2="444" y1="469"/>
          <text stroke-linecap="butt" x="249" y="486.0449" clip-path="url(#clipPath4)" font-family="sans-serif" stroke="none" stroke-miterlimit="1.45" xml:space="preserve">house number: house number</text>
          <text stroke-linecap="butt" x="249" y="500.1777" clip-path="url(#clipPath4)" font-family="sans-serif" stroke="none" stroke-miterlimit="1.45" xml:space="preserve">city: city</text>
          <text stroke-linecap="butt" x="249" y="514.3105" clip-path="url(#clipPath4)" font-family="sans-serif" stroke="none" stroke-miterlimit="1.45" xml:space="preserve">street name: street name</text>
          <line y2="521" fill="none" x1="245" clip-path="url(#clipPath4)" x2="444" y1="521"/>
        </g>
      </a>
    </g>
    <g id="y.node.2">
      <a target="_blank" xlink:type="simple" xlink:href="urn:facttype:person" xlink:show="new">
        <g fill="rgb(255,255,199)" text-rendering="geometricPrecision" shape-rendering="geometricPrecision" transform="matrix(1,0,0,1,-229,-130)" stroke="rgb(255,255,199)">
          <rect x="250" width="189" height="80" y="145" stroke="none"/>
        </g>
        <g text-rendering="geometricPrecision" stroke-miterlimit="1.45" shape-rendering="geometricPrecision" transform="matrix(1,0,0,1,-229,-130)" stroke-linecap="butt">
          <rect fill="none" x="250" width="189" height="80" y="145"/>
          <text x="294.001" xml:space="preserve" y="161.6016" clip-path="url(#clipPath5)" font-family="sans-serif" stroke="none">&lt;&lt;Objecttype&gt;&gt;</text>
        </g>
        <g>
          <g font-size="13px" stroke-linecap="butt" transform="matrix(1,0,0,1,-229,-130)" text-rendering="geometricPrecision" font-family="sans-serif" shape-rendering="geometricPrecision" font-weight="bold" stroke-miterlimit="1.45">
            <text x="321.3342" xml:space="preserve" y="185.7012" clip-path="url(#clipPath5)" stroke="none">person</text>
          </g>
        </g>
        <g text-rendering="geometricPrecision" shape-rendering="geometricPrecision" transform="matrix(1,0,0,1,-229,-130)">
          <line y2="193" fill="none" x1="251" clip-path="url(#clipPath5)" x2="438" y1="193"/>
          <text stroke-linecap="butt" x="255" y="210.0449" clip-path="url(#clipPath5)" font-family="sans-serif" stroke="none" stroke-miterlimit="1.45" xml:space="preserve">person's name: person's name</text>
          <line y2="217" fill="none" x1="251" clip-path="url(#clipPath5)" x2="438" y1="217"/>
        </g>
      </a>
    </g>
    <g id="y.edge.0">
      <a target="_blank" xlink:type="simple" xlink:href="urn:facttype:livingPlace" xlink:show="new">
        <g text-rendering="geometricPrecision" stroke-miterlimit="1.45" shape-rendering="geometricPrecision" transform="matrix(1,0,0,1,-229,-130)" stroke-linecap="butt">
          <path fill="none" d="M344.5 224.9716 L344.5 420.985"/>
        </g>
        <g>
          <g text-rendering="geometricPrecision" stroke-miterlimit="1.45" shape-rendering="geometricPrecision" font-family="sans-serif" transform="matrix(1,0,0,1,-229,-130)" stroke-linecap="butt">
            <text x="348" xml:space="preserve" y="327.5352" stroke="none">lives at</text>
          </g>
        </g>
        <g>
          <g text-rendering="geometricPrecision" stroke-miterlimit="1.45" shape-rendering="geometricPrecision" font-family="sans-serif" transform="matrix(1,0,0,1,-229,-130)" stroke-linecap="butt">
            <text x="259.1562" xml:space="preserve" y="327.5352" stroke="none">«Relatiesoort»</text>
          </g>
        </g>
        <g>
          <g text-rendering="geometricPrecision" stroke-miterlimit="1.45" shape-rendering="geometricPrecision" font-family="sans-serif" transform="matrix(1,0,0,1,-229,-130)" stroke-linecap="butt">
            <text x="320.0352" xml:space="preserve" y="243.6016" stroke="none">0..*</text>
          </g>
        </g>
        <g>
          <g text-rendering="geometricPrecision" stroke-miterlimit="1.45" shape-rendering="geometricPrecision" font-family="sans-serif" transform="matrix(1,0,0,1,-229,-130)" stroke-linecap="butt">
            <text x="348" xml:space="preserve" y="411.4688" stroke="none">home address</text>
          </g>
        </g>
        <g>
          <g text-rendering="geometricPrecision" stroke-miterlimit="1.45" shape-rendering="geometricPrecision" font-family="sans-serif" transform="matrix(1,0,0,1,-229,-130)" stroke-linecap="butt">
            <text x="318.2305" xml:space="preserve" y="411.4688" stroke="none">0..1</text>
          </g>
        </g>
      </a>
    </g>
    <g id="y.edge.1">
      <a target="_blank" xlink:type="simple" xlink:href="urn:facttype:employment" xlink:show="new">
        <g text-rendering="geometricPrecision" stroke-miterlimit="1.45" shape-rendering="geometricPrecision" transform="matrix(1,0,0,1,-229,-130)" stroke-linecap="butt">
          <path fill="none" d="M439.0114 185 L791.0198 185"/>
        </g>
        <g>
          <g text-rendering="geometricPrecision" stroke-miterlimit="1.45" shape-rendering="geometricPrecision" font-family="sans-serif" transform="matrix(1,0,0,1,-229,-130)" stroke-linecap="butt">
            <text x="578.8125" xml:space="preserve" y="178.9688" stroke="none">employment</text>
          </g>
        </g>
        <g>
          <g text-rendering="geometricPrecision" stroke-miterlimit="1.45" shape-rendering="geometricPrecision" font-family="sans-serif" transform="matrix(1,0,0,1,-229,-130)" stroke-linecap="butt">
            <text x="574.0781" xml:space="preserve" y="200.1016" stroke="none">«Relatiesoort»</text>
          </g>
        </g>
        <g>
          <g text-rendering="geometricPrecision" stroke-miterlimit="1.45" shape-rendering="geometricPrecision" font-family="sans-serif" transform="matrix(1,0,0,1,-229,-130)" stroke-linecap="butt">
            <text x="446" xml:space="preserve" y="178.9688" stroke="none">employee</text>
          </g>
        </g>
        <g>
          <g text-rendering="geometricPrecision" stroke-miterlimit="1.45" shape-rendering="geometricPrecision" font-family="sans-serif" transform="matrix(1,0,0,1,-229,-130)" stroke-linecap="butt">
            <text x="446" xml:space="preserve" y="200.1016" stroke="none">1..*</text>
          </g>
        </g>
        <g>
          <g text-rendering="geometricPrecision" stroke-miterlimit="1.45" shape-rendering="geometricPrecision" font-family="sans-serif" transform="matrix(1,0,0,1,-229,-130)" stroke-linecap="butt">
            <text x="729.8535" xml:space="preserve" y="178.9688" stroke="none">employer</text>
          </g>
        </g>
        <g>
          <g text-rendering="geometricPrecision" stroke-miterlimit="1.45" shape-rendering="geometricPrecision" font-family="sans-serif" transform="matrix(1,0,0,1,-229,-130)" stroke-linecap="butt">
            <text x="763.0352" xml:space="preserve" y="200.1016" stroke="none">0..*</text>
          </g>
        </g>
      </a>
    </g>
  </g>
</svg>
